<svg width="167" height="34" viewBox="0 0 167 34" fill="none" xmlns="http://www.w3.org/2000/svg">
<g filter="url(#filter0_d_746_3401)">
<path d="M11.824 24.264C11.184 24.264 10.512 24.216 9.808 24.12C9.12 24.04 8.464 23.912 7.84 23.736C7.216 23.56 6.656 23.352 6.16 23.112C5.728 22.904 5.424 22.632 5.248 22.296C5.072 21.944 5.008 21.576 5.056 21.192C5.104 20.808 5.24 20.472 5.464 20.184C5.688 19.88 5.984 19.68 6.352 19.584C6.72 19.472 7.136 19.52 7.6 19.728C8.208 20.016 8.896 20.24 9.664 20.4C10.432 20.56 11.152 20.64 11.824 20.64C12.88 20.64 13.616 20.504 14.032 20.232C14.464 19.944 14.68 19.592 14.68 19.176C14.68 18.808 14.528 18.512 14.224 18.288C13.936 18.064 13.416 17.872 12.664 17.712L9.856 17.112C8.32 16.792 7.176 16.232 6.424 15.432C5.672 14.632 5.296 13.6 5.296 12.336C5.296 11.504 5.464 10.752 5.8 10.08C6.152 9.392 6.64 8.808 7.264 8.328C7.904 7.848 8.656 7.48 9.52 7.224C10.4 6.952 11.376 6.816 12.448 6.816C13.28 6.816 14.12 6.912 14.968 7.104C15.832 7.28 16.576 7.552 17.2 7.92C17.568 8.112 17.832 8.376 17.992 8.712C18.152 9.048 18.216 9.4 18.184 9.768C18.152 10.12 18.024 10.432 17.8 10.704C17.592 10.976 17.304 11.16 16.936 11.256C16.584 11.336 16.16 11.272 15.664 11.064C15.2 10.856 14.672 10.704 14.08 10.608C13.504 10.496 12.944 10.44 12.4 10.44C11.808 10.44 11.304 10.512 10.888 10.656C10.472 10.784 10.152 10.976 9.928 11.232C9.72 11.488 9.616 11.784 9.616 12.12C9.616 12.456 9.752 12.744 10.024 12.984C10.312 13.208 10.832 13.4 11.584 13.56L14.368 14.16C15.92 14.496 17.08 15.048 17.848 15.816C18.616 16.584 19 17.584 19 18.816C19 19.648 18.832 20.4 18.496 21.072C18.16 21.744 17.68 22.32 17.056 22.8C16.432 23.264 15.68 23.624 14.8 23.88C13.92 24.136 12.928 24.264 11.824 24.264ZM22.9928 28.536C22.3208 28.536 21.8008 28.352 21.4328 27.984C21.0648 27.616 20.8808 27.08 20.8808 26.376V14.112C20.8808 13.424 21.0568 12.896 21.4088 12.528C21.7768 12.16 22.2968 11.976 22.9688 11.976C23.6568 11.976 24.1768 12.16 24.5288 12.528C24.8968 12.896 25.0808 13.424 25.0808 14.112V15.504L24.8168 14.328C25.0408 13.608 25.5048 13.032 26.2088 12.6C26.9288 12.152 27.7448 11.928 28.6568 11.928C29.6808 11.928 30.5768 12.176 31.3448 12.672C32.1288 13.168 32.7368 13.872 33.1688 14.784C33.6008 15.696 33.8168 16.8 33.8168 18.096C33.8168 19.36 33.6008 20.456 33.1688 21.384C32.7368 22.312 32.1288 23.024 31.3448 23.52C30.5768 24.016 29.6808 24.264 28.6568 24.264C27.7768 24.264 26.9848 24.056 26.2808 23.64C25.5768 23.224 25.1048 22.68 24.8648 22.008H25.1528V26.376C25.1528 27.08 24.9608 27.616 24.5768 27.984C24.2088 28.352 23.6808 28.536 22.9928 28.536ZM27.3128 21.12C27.7448 21.12 28.1208 21.016 28.4408 20.808C28.7768 20.584 29.0408 20.256 29.2328 19.824C29.4248 19.376 29.5208 18.8 29.5208 18.096C29.5208 17.024 29.3128 16.256 28.8968 15.792C28.4808 15.312 27.9528 15.072 27.3128 15.072C26.8808 15.072 26.4968 15.176 26.1608 15.384C25.8248 15.592 25.5608 15.92 25.3688 16.368C25.1768 16.8 25.0808 17.376 25.0808 18.096C25.0808 19.152 25.2888 19.92 25.7048 20.4C26.1208 20.88 26.6568 21.12 27.3128 21.12ZM42.1956 24.264C40.7556 24.264 39.5076 24.016 38.4516 23.52C37.4116 23.008 36.6116 22.288 36.0516 21.36C35.4916 20.432 35.2116 19.336 35.2116 18.072C35.2116 16.856 35.4756 15.792 36.0036 14.88C36.5476 13.952 37.2836 13.232 38.2116 12.72C39.1556 12.192 40.2276 11.928 41.4276 11.928C42.3076 11.928 43.1076 12.072 43.8276 12.36C44.5476 12.632 45.1636 13.04 45.6756 13.584C46.1876 14.112 46.5716 14.752 46.8276 15.504C47.0996 16.256 47.2356 17.096 47.2356 18.024C47.2356 18.344 47.1476 18.584 46.9716 18.744C46.7956 18.888 46.5156 18.96 46.1316 18.96H38.7876V16.944H44.1156L43.7316 17.256C43.7316 16.664 43.6516 16.184 43.4916 15.816C43.3316 15.448 43.0916 15.168 42.7716 14.976C42.4676 14.784 42.0836 14.688 41.6196 14.688C41.1236 14.688 40.6916 14.808 40.3236 15.048C39.9716 15.272 39.6996 15.608 39.5076 16.056C39.3156 16.504 39.2196 17.064 39.2196 17.736V17.952C39.2196 19.088 39.4676 19.904 39.9636 20.4C40.4756 20.88 41.2596 21.12 42.3156 21.12C42.6676 21.12 43.0676 21.08 43.5156 21C43.9796 20.904 44.4196 20.776 44.8356 20.616C45.2516 20.456 45.6116 20.432 45.9156 20.544C46.2196 20.64 46.4516 20.816 46.6116 21.072C46.7876 21.312 46.8836 21.592 46.8996 21.912C46.9156 22.216 46.8436 22.52 46.6836 22.824C46.5236 23.112 46.2596 23.336 45.8916 23.496C45.3316 23.752 44.7316 23.944 44.0916 24.072C43.4676 24.2 42.8356 24.264 42.1956 24.264ZM55.1001 24.264C53.7721 24.264 52.6121 24.016 51.6201 23.52C50.6441 23.024 49.8841 22.312 49.3401 21.384C48.7961 20.44 48.5241 19.336 48.5241 18.072C48.5241 17.112 48.6761 16.256 48.9801 15.504C49.2841 14.736 49.7241 14.088 50.3001 13.56C50.8921 13.032 51.5881 12.632 52.3881 12.36C53.2041 12.072 54.1081 11.928 55.1001 11.928C55.5641 11.928 56.0521 11.976 56.5641 12.072C57.0761 12.152 57.6041 12.312 58.1481 12.552C58.5321 12.696 58.7961 12.92 58.9401 13.224C59.1001 13.512 59.1641 13.824 59.1321 14.16C59.1161 14.496 59.0201 14.8 58.8441 15.072C58.6841 15.344 58.4521 15.528 58.1481 15.624C57.8601 15.72 57.5321 15.68 57.1641 15.504C56.9081 15.376 56.6361 15.288 56.3481 15.24C56.0761 15.176 55.8121 15.144 55.5561 15.144C55.1241 15.144 54.7401 15.208 54.4041 15.336C54.0841 15.464 53.8121 15.656 53.5881 15.912C53.3641 16.152 53.1881 16.456 53.0601 16.824C52.9481 17.192 52.8921 17.608 52.8921 18.072C52.8921 19 53.1241 19.728 53.5881 20.256C54.0521 20.784 54.7081 21.048 55.5561 21.048C55.8121 21.048 56.0761 21.024 56.3481 20.976C56.6201 20.912 56.8921 20.816 57.1641 20.688C57.5321 20.512 57.8601 20.48 58.1481 20.592C58.4361 20.688 58.6681 20.872 58.8441 21.144C59.0201 21.416 59.1161 21.72 59.1321 22.056C59.1481 22.376 59.0761 22.688 58.9161 22.992C58.7561 23.28 58.4841 23.496 58.1001 23.64C57.5721 23.88 57.0521 24.04 56.5401 24.12C56.0441 24.216 55.5641 24.264 55.1001 24.264ZM66.9869 24.264C65.7869 24.264 64.7949 24.08 64.0109 23.712C63.2429 23.344 62.6669 22.792 62.2829 22.056C61.8989 21.304 61.7069 20.368 61.7069 19.248V15.336H60.8909C60.3789 15.336 59.9789 15.2 59.6909 14.928C59.4189 14.656 59.2829 14.264 59.2829 13.752C59.2829 13.24 59.4189 12.856 59.6909 12.6C59.9789 12.328 60.3789 12.192 60.8909 12.192H61.7069V10.704C61.7069 10 61.8909 9.464 62.2589 9.096C62.6269 8.728 63.1549 8.544 63.8429 8.544C64.5309 8.544 65.0589 8.728 65.4269 9.096C65.7949 9.464 65.9789 10 65.9789 10.704V12.192H67.9469C68.4749 12.192 68.8749 12.328 69.1469 12.6C69.4349 12.856 69.5789 13.24 69.5789 13.752C69.5789 14.264 69.4349 14.656 69.1469 14.928C68.8749 15.2 68.4749 15.336 67.9469 15.336H65.9789V19.104C65.9789 19.696 66.1149 20.136 66.3869 20.424C66.6749 20.696 67.1229 20.832 67.7309 20.832C67.9549 20.832 68.1709 20.808 68.3789 20.76C68.5869 20.712 68.7789 20.688 68.9549 20.688C69.2109 20.672 69.4189 20.752 69.5789 20.928C69.7389 21.088 69.8189 21.464 69.8189 22.056C69.8189 22.536 69.7469 22.944 69.6029 23.28C69.4589 23.6 69.2029 23.832 68.8349 23.976C68.6109 24.056 68.3069 24.12 67.9229 24.168C67.5389 24.232 67.2269 24.264 66.9869 24.264ZM73.1976 24.216C72.4936 24.216 71.9496 24.032 71.5656 23.664C71.1976 23.296 71.0136 22.76 71.0136 22.056V14.112C71.0136 13.424 71.1896 12.896 71.5416 12.528C71.9096 12.16 72.4296 11.976 73.1016 11.976C73.7736 11.976 74.2856 12.16 74.6376 12.528C74.9896 12.896 75.1656 13.424 75.1656 14.112V15.096H74.9256C75.0856 14.136 75.4936 13.376 76.1496 12.816C76.8216 12.256 77.6536 11.96 78.6456 11.928C79.1096 11.912 79.4536 12.032 79.6776 12.288C79.9176 12.528 80.0456 12.984 80.0616 13.656C80.0616 14.232 79.9416 14.688 79.7016 15.024C79.4616 15.36 79.0056 15.56 78.3336 15.624L77.7816 15.672C76.9336 15.752 76.3176 15.992 75.9336 16.392C75.5496 16.776 75.3576 17.352 75.3576 18.12V22.056C75.3576 22.76 75.1736 23.296 74.8056 23.664C74.4376 24.032 73.9016 24.216 73.1976 24.216ZM85.8359 24.264C84.8119 24.264 83.9719 24.08 83.3159 23.712C82.6599 23.328 82.1639 22.76 81.8279 22.008C81.5079 21.256 81.3479 20.304 81.3479 19.152V14.112C81.3479 13.408 81.5319 12.88 81.8999 12.528C82.2679 12.16 82.7959 11.976 83.4839 11.976C84.1719 11.976 84.6999 12.16 85.0679 12.528C85.4359 12.88 85.6199 13.408 85.6199 14.112V19.272C85.6199 19.848 85.7399 20.28 85.9799 20.568C86.2199 20.856 86.5959 21 87.1079 21C87.6839 21 88.1559 20.792 88.5239 20.376C88.8919 19.96 89.0759 19.408 89.0759 18.72V14.112C89.0759 13.408 89.2599 12.88 89.6279 12.528C89.9959 12.16 90.5239 11.976 91.2119 11.976C91.8999 11.976 92.4279 12.16 92.7959 12.528C93.1639 12.88 93.3479 13.408 93.3479 14.112V22.056C93.3479 23.496 92.6599 24.216 91.2839 24.216C90.6119 24.216 90.0919 24.032 89.7239 23.664C89.3559 23.296 89.1719 22.76 89.1719 22.056V20.664L89.5559 21.84C89.2039 22.624 88.7079 23.224 88.0679 23.64C87.4439 24.056 86.6999 24.264 85.8359 24.264ZM97.9939 24.216C97.3219 24.216 96.8019 24.032 96.4339 23.664C96.0659 23.296 95.8819 22.76 95.8819 22.056V14.112C95.8819 13.424 96.0579 12.896 96.4099 12.528C96.7779 12.16 97.2979 11.976 97.9699 11.976C98.6419 11.976 99.1539 12.16 99.5059 12.528C99.8579 12.896 100.034 13.424 100.034 14.112V15.432L99.7699 14.256C100.106 13.552 100.602 12.992 101.258 12.576C101.93 12.144 102.722 11.928 103.634 11.928C104.498 11.928 105.234 12.136 105.842 12.552C106.466 12.968 106.914 13.6 107.186 14.448H106.85C107.218 13.664 107.77 13.048 108.506 12.6C109.242 12.152 110.058 11.928 110.954 11.928C111.882 11.928 112.642 12.112 113.234 12.48C113.826 12.832 114.266 13.392 114.554 14.16C114.858 14.912 115.01 15.864 115.01 17.016V22.056C115.01 22.76 114.818 23.296 114.434 23.664C114.066 24.032 113.538 24.216 112.85 24.216C112.178 24.216 111.658 24.032 111.29 23.664C110.922 23.296 110.738 22.76 110.738 22.056V17.136C110.738 16.448 110.634 15.952 110.426 15.648C110.218 15.344 109.874 15.192 109.394 15.192C108.802 15.192 108.346 15.4 108.026 15.816C107.722 16.232 107.57 16.824 107.57 17.592V22.056C107.57 22.76 107.386 23.296 107.018 23.664C106.65 24.032 106.122 24.216 105.434 24.216C104.746 24.216 104.218 24.032 103.85 23.664C103.482 23.296 103.298 22.76 103.298 22.056V17.136C103.298 16.448 103.194 15.952 102.986 15.648C102.778 15.344 102.434 15.192 101.954 15.192C101.378 15.192 100.93 15.4 100.61 15.816C100.306 16.232 100.154 16.824 100.154 17.592V22.056C100.154 23.496 99.4339 24.216 97.9939 24.216ZM126.322 24.264C124.45 24.264 122.842 23.904 121.498 23.184C120.154 22.464 119.122 21.448 118.402 20.136C117.698 18.824 117.346 17.288 117.346 15.528C117.346 14.216 117.546 13.024 117.946 11.952C118.362 10.88 118.954 9.96 119.722 9.192C120.506 8.424 121.45 7.84 122.554 7.44C123.674 7.024 124.93 6.816 126.322 6.816C127.058 6.816 127.818 6.904 128.602 7.08C129.402 7.24 130.106 7.488 130.714 7.824C131.162 8.064 131.474 8.368 131.65 8.736C131.826 9.104 131.882 9.48 131.818 9.864C131.77 10.248 131.634 10.592 131.41 10.896C131.186 11.2 130.898 11.408 130.546 11.52C130.194 11.616 129.81 11.56 129.394 11.352C128.914 11.128 128.434 10.96 127.954 10.848C127.49 10.72 127.002 10.656 126.49 10.656C125.498 10.656 124.666 10.848 123.994 11.232C123.338 11.6 122.842 12.144 122.506 12.864C122.17 13.584 122.002 14.472 122.002 15.528C122.002 16.584 122.17 17.48 122.506 18.216C122.842 18.936 123.338 19.488 123.994 19.872C124.666 20.24 125.498 20.424 126.49 20.424C126.906 20.424 127.354 20.376 127.834 20.28C128.314 20.168 128.786 20 129.25 19.776C129.73 19.568 130.154 19.512 130.522 19.608C130.906 19.704 131.21 19.896 131.434 20.184C131.674 20.472 131.826 20.808 131.89 21.192C131.954 21.56 131.898 21.928 131.722 22.296C131.562 22.664 131.274 22.96 130.858 23.184C130.298 23.52 129.602 23.784 128.77 23.976C127.954 24.168 127.138 24.264 126.322 24.264ZM140.168 24.264C139.528 24.264 138.856 24.216 138.152 24.12C137.464 24.04 136.808 23.912 136.184 23.736C135.56 23.56 135 23.352 134.504 23.112C134.072 22.904 133.768 22.632 133.592 22.296C133.416 21.944 133.352 21.576 133.4 21.192C133.448 20.808 133.584 20.472 133.808 20.184C134.032 19.88 134.328 19.68 134.696 19.584C135.064 19.472 135.48 19.52 135.944 19.728C136.552 20.016 137.24 20.24 138.008 20.4C138.776 20.56 139.496 20.64 140.168 20.64C141.224 20.64 141.96 20.504 142.376 20.232C142.808 19.944 143.024 19.592 143.024 19.176C143.024 18.808 142.872 18.512 142.568 18.288C142.28 18.064 141.76 17.872 141.008 17.712L138.2 17.112C136.664 16.792 135.52 16.232 134.768 15.432C134.016 14.632 133.64 13.6 133.64 12.336C133.64 11.504 133.808 10.752 134.144 10.08C134.496 9.392 134.984 8.808 135.608 8.328C136.248 7.848 137 7.48 137.864 7.224C138.744 6.952 139.72 6.816 140.792 6.816C141.624 6.816 142.464 6.912 143.312 7.104C144.176 7.28 144.92 7.552 145.544 7.92C145.912 8.112 146.176 8.376 146.336 8.712C146.496 9.048 146.56 9.4 146.528 9.768C146.496 10.12 146.368 10.432 146.144 10.704C145.936 10.976 145.648 11.16 145.28 11.256C144.928 11.336 144.504 11.272 144.008 11.064C143.544 10.856 143.016 10.704 142.424 10.608C141.848 10.496 141.288 10.44 140.744 10.44C140.152 10.44 139.648 10.512 139.232 10.656C138.816 10.784 138.496 10.976 138.272 11.232C138.064 11.488 137.96 11.784 137.96 12.12C137.96 12.456 138.096 12.744 138.368 12.984C138.656 13.208 139.176 13.4 139.928 13.56L142.712 14.16C144.264 14.496 145.424 15.048 146.192 15.816C146.96 16.584 147.344 17.584 147.344 18.816C147.344 19.648 147.176 20.4 146.84 21.072C146.504 21.744 146.024 22.32 145.4 22.8C144.776 23.264 144.024 23.624 143.144 23.88C142.264 24.136 141.272 24.264 140.168 24.264ZM155.801 24.264C155.161 24.264 154.489 24.216 153.785 24.12C153.097 24.04 152.441 23.912 151.817 23.736C151.193 23.56 150.633 23.352 150.137 23.112C149.705 22.904 149.401 22.632 149.225 22.296C149.049 21.944 148.985 21.576 149.033 21.192C149.081 20.808 149.217 20.472 149.441 20.184C149.665 19.88 149.961 19.68 150.329 19.584C150.697 19.472 151.113 19.52 151.577 19.728C152.185 20.016 152.873 20.24 153.641 20.4C154.409 20.56 155.129 20.64 155.801 20.64C156.857 20.64 157.593 20.504 158.009 20.232C158.441 19.944 158.657 19.592 158.657 19.176C158.657 18.808 158.505 18.512 158.201 18.288C157.913 18.064 157.393 17.872 156.641 17.712L153.833 17.112C152.297 16.792 151.153 16.232 150.401 15.432C149.649 14.632 149.273 13.6 149.273 12.336C149.273 11.504 149.441 10.752 149.777 10.08C150.129 9.392 150.617 8.808 151.241 8.328C151.881 7.848 152.633 7.48 153.497 7.224C154.377 6.952 155.353 6.816 156.425 6.816C157.257 6.816 158.097 6.912 158.945 7.104C159.809 7.28 160.553 7.552 161.177 7.92C161.545 8.112 161.809 8.376 161.969 8.712C162.129 9.048 162.193 9.4 162.161 9.768C162.129 10.12 162.001 10.432 161.777 10.704C161.569 10.976 161.281 11.16 160.913 11.256C160.561 11.336 160.137 11.272 159.641 11.064C159.177 10.856 158.649 10.704 158.057 10.608C157.481 10.496 156.921 10.44 156.377 10.44C155.785 10.44 155.281 10.512 154.865 10.656C154.449 10.784 154.129 10.976 153.905 11.232C153.697 11.488 153.593 11.784 153.593 12.12C153.593 12.456 153.729 12.744 154.001 12.984C154.289 13.208 154.809 13.4 155.561 13.56L158.345 14.16C159.897 14.496 161.057 15.048 161.825 15.816C162.593 16.584 162.977 17.584 162.977 18.816C162.977 19.648 162.809 20.4 162.473 21.072C162.137 21.744 161.657 22.32 161.033 22.8C160.409 23.264 159.657 23.624 158.777 23.88C157.897 24.136 156.905 24.264 155.801 24.264Z" fill="url(#paint0_linear_746_3401)"/>
</g>
<defs>
<filter id="filter0_d_746_3401" x="0" y="-3" width="168" height="41" filterUnits="userSpaceOnUse" color-interpolation-filters="sRGB">
<feFlood flood-opacity="0" result="BackgroundImageFix"/>
<feColorMatrix in="SourceAlpha" type="matrix" values="0 0 0 0 0 0 0 0 0 0 0 0 0 0 0 0 0 0 127 0" result="hardAlpha"/>
<feOffset dy="1"/>
<feGaussianBlur stdDeviation="2"/>
<feComposite in2="hardAlpha" operator="out"/>
<feColorMatrix type="matrix" values="0 0 0 0 0 0 0 0 0 0 0 0 0 0 0 0 0 0 0.15 0"/>
<feBlend mode="normal" in2="BackgroundImageFix" result="effect1_dropShadow_746_3401"/>
<feBlend mode="normal" in="SourceGraphic" in2="effect1_dropShadow_746_3401" result="shape"/>
</filter>
<linearGradient id="paint0_linear_746_3401" x1="4" y1="16.5" x2="164" y2="16.5" gradientUnits="userSpaceOnUse">
<stop stop-color="#8A2387"/>
<stop offset="0.58" stop-color="#E94057"/>
<stop offset="1" stop-color="#F27121"/>
</linearGradient>
</defs>
</svg>
