<svg width="24" height="24" viewBox="0 0 24 24" fill="none" xmlns="http://www.w3.org/2000/svg">
<path d="M7 11.2947C12.284 1.44656 18.8635 1.333 21.4928 2.50724C22.667 5.1365 22.5534 11.716 12.7053 17C12.6031 16.4129 12.0352 14.8749 10.5801 13.4199C9.12512 11.9648 7.58712 11.3969 7 11.2947Z" stroke="white" stroke-width="1.5" stroke-linecap="round" stroke-linejoin="round"/>
<path d="M14 16.8C16.0428 17.7334 16.2609 19.4069 16.5439 21C16.5439 21 20.8223 18.0481 18.0856 14" stroke="white" stroke-width="1.5" stroke-linecap="round" stroke-linejoin="round"/>
<path d="M7.19998 9.99988C6.26664 7.9571 4.59305 7.739 3 7.45602C3 7.45602 5.95194 3.17754 10 5.91432" stroke="white" stroke-width="1.5" stroke-linecap="round" stroke-linejoin="round"/>
<path d="M6.20864 13.9998C5.57675 14.6317 4.50253 16.4642 5.2608 18.739C7.53562 19.4973 9.36811 18.4231 9.99998 17.7912" stroke="white" stroke-width="1.5" stroke-linecap="round" stroke-linejoin="round"/>
<path d="M18.0953 7.75298C18.0953 6.73278 17.2683 5.90576 16.2481 5.90576C15.2279 5.90576 14.4009 6.73278 14.4009 7.75298C14.4009 8.77317 15.2279 9.6002 16.2481 9.6002C17.2683 9.6002 18.0953 8.77317 18.0953 7.75298Z" stroke="white" stroke-width="1.5"/>
</svg>
